<?xml version="1.0" encoding="UTF-8" standalone="no"?>
<svg
   xmlns:dc="http://purl.org/dc/elements/1.1/"
   xmlns:cc="http://creativecommons.org/ns#"
   xmlns:rdf="http://www.w3.org/1999/02/22-rdf-syntax-ns#"
   xmlns:svg="http://www.w3.org/2000/svg"
   xmlns="http://www.w3.org/2000/svg"
   viewBox="0 0 475.53333 92.040001"
   height="92.040001"
   width="475.53333"
   xml:space="preserve"
   id="svg2"
   version="1.1"><metadata
     id="metadata8"><rdf:RDF><cc:Work
         rdf:about=""><dc:format>image/svg+xml</dc:format><dc:type
           rdf:resource="http://purl.org/dc/dcmitype/StillImage" /></cc:Work></rdf:RDF></metadata><defs
     id="defs6" /><g
     transform="matrix(1.3333333,0,0,-1.3333333,0,92.04)"
     id="g10"><g
       transform="scale(0.1)"
       id="g12"><path
         id="path14"
         style="fill:#ffffff;fill-opacity:1;fill-rule:nonzero;stroke:none"
         d="m 1643.94,247.527 195.25,-195.2497 32.53,32.543 -195.24,195.2497 -32.54,-32.543" /><path
         id="path16"
         style="fill:#ffffff;fill-opacity:1;fill-rule:nonzero;stroke:none"
         d="m 1709.02,312.609 195.25,-195.25 32.54,32.543 -195.25,195.25 -32.54,-32.543" /><path
         id="path18"
         style="fill:#ffffff;fill-opacity:1;fill-rule:nonzero;stroke:none"
         d="m 1351.07,540.395 195.25,-195.247 32.54,32.54 -195.25,195.25 -32.54,-32.543" /><path
         id="path20"
         style="fill:#ffffff;fill-opacity:1;fill-rule:nonzero;stroke:none"
         d="m 1416.15,605.477 195.25,-195.247 32.54,32.54 -195.25,195.25 -32.54,-32.543" /><path
         id="path22"
         style="fill:#ffffff;fill-opacity:1;fill-rule:nonzero;stroke:none"
         d="m 1839.18,638.016 -195.24,-195.243 32.54,-32.543 195.25,195.247 -32.55,32.539" /><path
         id="path24"
         style="fill:#ffffff;fill-opacity:1;fill-rule:nonzero;stroke:none"
         d="m 1904.27,572.938 -195.25,-195.247 32.54,-32.543 195.25,195.247 -32.54,32.543" /><path
         id="path26"
         style="fill:#ffffff;fill-opacity:1;fill-rule:nonzero;stroke:none"
         d="m 1546.32,345.148 -195.25,-195.242 32.54,-32.543 195.25,195.242 -32.54,32.543" /><path
         id="path28"
         style="fill:#ffffff;fill-opacity:1;fill-rule:nonzero;stroke:none"
         d="M 1611.4,280.066 1416.15,84.8242 1448.69,52.2813 1643.94,247.523 1611.4,280.066" /><path
         id="path30"
         style="fill:#ffffff;fill-opacity:1;fill-rule:nonzero;stroke:none"
         d="m 1574.91,552.238 h 46.02 v 138.063 h -46.02 V 552.238" /><path
         id="path32"
         style="fill:#ffffff;fill-opacity:1;fill-rule:nonzero;stroke:none"
         d="m 1666.94,552.238 h 46.03 v 138.063 h -46.03 V 552.238" /><path
         id="path34"
         style="fill:#ffffff;fill-opacity:1;fill-rule:nonzero;stroke:none"
         d="m 1574.91,0 h 46.02 v 138.059 h -46.02 V 0" /><path
         id="path36"
         style="fill:#ffffff;fill-opacity:1;fill-rule:nonzero;stroke:none"
         d="m 1666.94,0 h 46.03 v 138.059 h -46.03 V 0" /><path
         id="path38"
         style="fill:#ffffff;fill-opacity:1;fill-rule:nonzero;stroke:none"
         d="m 1989.09,414.18 h -138.06 v -46.024 h 138.06 v 46.024" /><path
         id="path40"
         style="fill:#ffffff;fill-opacity:1;fill-rule:nonzero;stroke:none"
         d="m 1989.09,322.137 h -138.06 v -46.02 h 138.06 v 46.02" /><path
         id="path42"
         style="fill:#ffffff;fill-opacity:1;fill-rule:nonzero;stroke:none"
         d="m 1298.79,368.156 h 138.06 v 46.024 h -138.06 v -46.024" /><path
         id="path44"
         style="fill:#ffffff;fill-opacity:1;fill-rule:nonzero;stroke:none"
         d="m 1298.79,276.121 h 138.06 v 46.016 h -138.06 v -46.016" /><path
         id="path46"
         style="fill:#ffffff;fill-opacity:1;fill-rule:nonzero;stroke:none"
         d="m 2560.15,93.043 h 41.27 v 76.594 h 19.07 l 35.95,-76.594 h 43.15 l -40.02,83.785 c 23.13,11.883 35.33,35.953 35.33,59.09 v 0.309 c 0,39.394 -33.46,65.656 -67.22,65.656 h -67.53 z m 41.27,115.676 v 54.086 h 19.7 c 19.69,0 32.82,-10.629 33.14,-26.887 -0.32,-18.449 -13.14,-27.199 -33.14,-27.199 z m 268.55,-33.453 c 0,44.082 -29.08,77.535 -75.66,77.535 -48.46,0 -77.85,-36.895 -77.85,-80.977 0,-45.644 29.39,-82.2185 77.85,-82.2185 34.7,0 54.4,13.1285 71.91,35.0115 l -30.33,21.887 c -10.63,-13.133 -22.2,-20.012 -39.08,-20.012 -20.01,0 -34.39,11.879 -38.77,31.578 h 110.99 c 0.94,5.942 0.94,11.879 0.94,17.196 m -111.3,11.257 c 4.38,18.129 17.51,28.446 36.89,28.446 15.95,0 29.7,-9.692 33.45,-28.446 z m 141.62,-93.48 h 41.27 v 103.48 c 3.44,5.942 12.82,17.821 32.51,17.821 20.32,0 32.2,-14.379 32.2,-32.828 V 93.043 h 40.65 v 88.473 c 0,40.644 -24.39,70.972 -71.28,70.972 -12.51,0 -24.39,-2.816 -34.08,-9.066 v 5.937 h -41.27 z m 182.58,0 h 41.26 v 103.48 c 3.44,5.942 12.82,17.821 32.52,17.821 20.32,0 32.2,-14.379 32.2,-32.828 V 93.043 h 40.64 v 88.473 c 0,40.644 -24.38,70.972 -71.28,70.972 -12.5,0 -24.38,-2.816 -34.08,-9.066 v 5.937 h -41.26 z m 328.88,82.223 c 0,44.082 -29.07,77.535 -75.65,77.535 -48.46,0 -77.85,-36.895 -77.85,-80.977 0,-45.644 29.39,-82.2185 77.85,-82.2185 34.7,0 54.39,13.1285 71.9,35.0115 l -30.32,21.887 c -10.63,-13.133 -22.2,-20.012 -39.08,-20.012 -20.01,0 -34.39,11.879 -38.77,31.578 h 110.99 c 0.93,5.942 0.93,11.879 0.93,17.196 m -111.29,11.257 c 4.37,18.129 17.5,28.446 36.89,28.446 15.94,0 29.7,-9.692 33.45,-28.446 z m 150.68,-49.402 -18.44,-7.504 c 12.19,-23.445 34.7,-40.0115 70.96,-40.0115 38.15,0 61.28,22.1955 61.28,48.7655 0,26.578 -15.32,41.27 -56.27,50.34 l -2.81,0.625 c -23.14,5 -29.08,8.441 -29.08,16.879 0,6.566 8.13,13.133 22.51,13.133 15.94,0 27.51,-9.067 31.26,-20.946 l 18.13,6.563 17.82,7.191 c -8.13,26.887 -31.57,40.645 -66.59,40.645 -40.95,0 -62.21,-23.453 -62.21,-48.774 0,-28.136 19.38,-41.582 55.33,-50.019 l 4.07,-0.938 c 24.07,-5.629 27.82,-8.441 27.82,-15.949 0,-8.754 -8.75,-13.441 -22.19,-13.441 -16.26,0 -28.14,9.066 -34.08,20.949 z m 39.39,69.094 c 0,-0.625 -0.31,-0.625 0.63,-0.625 -0.63,0 -0.63,0.312 -0.63,0.625" /><path
         id="path48"
         style="fill:#ffffff;fill-opacity:1;fill-rule:nonzero;stroke:none"
         d="M 2127.15,624.023 V 498.027 c 0,-51.269 32.51,-85.972 84.72,-85.972 52.21,0 85.04,34.703 85.04,85.972 v 125.996 h -41.27 V 498.027 c 0,-28.132 -16.26,-45.332 -43.77,-45.332 -27.51,0 -43.45,17.2 -43.45,45.332 V 624.023 Z M 2335.99,415.18 h 41.27 v 103.48 c 3.43,5.945 12.81,17.824 32.51,17.824 20.32,0 32.2,-14.379 32.2,-32.828 V 415.18 h 40.64 v 88.476 c 0,40.645 -24.38,70.965 -71.28,70.965 -12.5,0 -24.38,-2.812 -34.07,-9.062 v 5.937 h -41.27 z m 183.82,0 h 40.02 v 156.316 h -40.02 z m -0.62,186.019 h 41.27 v 42.52 h -41.27 z m 171.32,-186.019 58.77,156.316 h -42.83 l -38.45,-102.23 -40.96,102.23 h -42.83 l 63.46,-156.316 z m 225.1,82.222 c 0,44.082 -29.08,77.539 -75.66,77.539 -48.46,0 -77.85,-36.894 -77.85,-80.976 0,-45.645 29.39,-82.223 77.85,-82.223 34.7,0 54.4,13.129 71.91,35.016 l -30.33,21.883 c -10.63,-13.129 -22.2,-20.008 -39.08,-20.008 -20.01,0 -34.39,11.879 -38.77,31.578 h 110.99 c 0.94,5.937 0.94,11.879 0.94,17.191 m -111.3,11.254 c 4.37,18.137 17.5,28.453 36.89,28.453 15.94,0 29.7,-9.691 33.45,-28.453 z m 142.24,-93.476 h 41.9 v 103.793 l 48.14,18.761 v 40.645 l -48.14,-18.449 v 11.566 h -41.9 z m 125.37,44.082 -18.44,-7.504 c 12.19,-23.445 34.7,-40.016 70.97,-40.016 38.14,0 61.27,22.199 61.27,48.77 0,26.574 -15.32,41.269 -56.27,50.336 l -2.82,0.625 c -23.13,5 -29.07,8.437 -29.07,16.882 0,6.567 8.13,13.129 22.51,13.129 15.94,0 27.51,-9.062 31.26,-20.941 l 18.13,6.562 17.83,7.192 c -8.13,26.883 -31.58,40.644 -66.6,40.644 -40.95,0 -62.21,-23.453 -62.21,-48.773 0,-28.141 19.38,-41.582 55.34,-50.023 l 4.06,-0.942 c 24.07,-5.625 27.83,-8.437 27.83,-15.941 0,-8.754 -8.76,-13.442 -22.2,-13.442 -16.26,0 -28.14,9.067 -34.08,20.946 z m 39.4,69.093 c 0,-0.625 -0.32,-0.625 0.62,-0.625 -0.62,0 -0.62,0.313 -0.62,0.625 M 3219.17,415.18 h 40.02 v 156.316 h -40.02 z m -0.63,186.019 h 41.27 v 42.52 h -41.27 z m 98.17,-186.019 h 40.01 v 118.492 h 43.46 v 37.824 h -43.46 v 47.524 h -40.01 v -47.524 h -31.26 v -37.824 h 31.26 z m 249.79,82.222 c 0,44.082 -29.07,77.539 -75.65,77.539 -48.46,0 -77.85,-36.894 -77.85,-80.976 0,-45.645 29.39,-82.223 77.85,-82.223 34.7,0 54.4,13.129 71.9,35.016 l -30.32,21.883 c -10.63,-13.129 -22.2,-20.008 -39.08,-20.008 -20.01,0 -34.39,11.879 -38.77,31.578 h 110.99 c 0.93,5.937 0.93,11.879 0.93,17.191 m -111.29,11.254 c 4.37,18.137 17.5,28.453 36.89,28.453 15.94,0 29.7,-9.691 33.45,-28.453 z m 14.07,84.414 h 41.26 l 31.27,51.899 h -44.4 l -28.13,-51.899" /><path
         id="path50"
         style="fill:#ffffff;fill-opacity:1;fill-rule:nonzero;stroke:none"
         d="m 2243.45,93.043 h 41.89 v 229.785 h -41.89 v -77.844 c -11.88,5 -23.76,7.817 -36.27,7.817 -45.02,0 -80.04,-33.453 -80.04,-81.602 0,-47.519 31.89,-81.5935 80.04,-81.5935 11.26,0 23.45,2.1875 36.27,10.0039 z m -75.04,78.156 c 0,27.828 19.7,43.457 43.46,43.457 10.94,0 22.2,-4.062 31.58,-10.004 v -64.406 c -8.13,-7.5 -17.51,-12.504 -32.21,-12.504 -22.82,0 -42.83,15.637 -42.83,43.457 m 295.44,4.067 c 0,44.082 -29.07,77.535 -75.66,77.535 -48.45,0 -77.84,-36.895 -77.84,-80.977 0,-45.644 29.39,-82.2185 77.84,-82.2185 34.71,0 54.4,13.1285 71.91,35.0115 l -30.33,21.887 c -10.63,-13.133 -22.19,-20.012 -39.07,-20.012 -20.01,0 -34.4,11.879 -38.77,31.578 h 110.98 c 0.94,5.942 0.94,11.879 0.94,17.196 m -111.3,11.257 c 4.38,18.129 17.51,28.446 36.89,28.446 15.95,0 29.7,-9.692 33.46,-28.446 h -70.35" /><path
         id="path52"
         style="fill:#ffffff;fill-opacity:1;fill-rule:nonzero;stroke:none"
         d="m 1022.67,138.059 h -10.9 v 414.179 h 10.9 V 138.059" /><path
         id="path54"
         style="fill:#ffffff;fill-opacity:1;fill-rule:nonzero;stroke:none"
         d="m 695.34,421.941 c -24.891,25.7 -59.945,42.051 -98.664,42.032 -1.012,0 -2.121,-0.008 -3.332,-0.043 l 0.14,0.008 c -0.57,-0.012 -1.171,-0.02 -1.796,-0.02 -22.625,0.012 -42.934,9.406 -58.047,24.898 -15.055,15.52 -24.356,36.805 -24.352,60.008 0.086,46.93 38.035,84.801 84.887,84.887 23.601,-0.004 44.887,-9.484 60.484,-24.922 10.988,-10.922 18.938,-24.605 22.68,-39.953 l 55.465,11.242 C 718.422,643.332 661.578,690.273 594.176,690.301 516.09,690.285 452.723,627.039 452.703,548.824 c 0.012,-38.445 15.395,-73.761 40.356,-99.433 24.886,-25.7 59.929,-42.078 98.629,-42.063 1.003,0 2.035,0.008 3.113,0.035 l 0.215,0.008 c 0.441,0.012 1,0.02 1.66,0.02 22.703,-0.02 42.984,-9.407 58.07,-24.875 15.035,-15.493 24.317,-36.77 24.313,-60.043 -0.082,-46.825 -37.938,-84.793 -84.883,-84.879 -23.469,0.051 -43.606,9.312 -58.891,24.746 -15.199,15.437 -25.031,37.062 -26.012,61.285 -1.566,38.215 -17.035,73.203 -42.164,98.746 -25.05,25.563 -60.261,41.625 -99.285,41.574 -38.969,0.051 -74.16,-16.011 -99.23,-41.558 -25.153,-25.532 -40.692,-60.528 -42.219,-98.778 -0.969,-24.25 -10.781,-45.859 -25.969,-61.293 -15.273,-15.421 -35.422,-24.671 -58.937,-24.722 -46.8909,0.086 -84.801,38.019 -84.8831,84.879 0.0821,46.894 37.9766,84.797 84.8831,84.882 v 56.59 c -46.9104,0.086 -84.801,37.961 -84.8831,84.879 0.0821,46.899 37.9766,84.801 84.8831,84.887 39.855,-0.074 73.172,-27.402 82.355,-64.402 l 55.504,11.25 C 264.922,643.438 208.703,690.301 141.469,690.301 63.3086,690.285 0.0078125,626.98 0,548.824 0.00390625,502.531 22.2109,461.453 56.5586,435.648 22.2109,409.84 0.00390625,368.762 0,322.473 0.015625,244.348 63.293,181.016 141.469,181.004 c 39.011,-0.055 74.211,16.055 99.269,41.621 25.137,25.539 40.653,60.523 42.18,98.715 0.973,24.316 10.793,45.914 25.984,61.332 15.27,15.391 35.414,24.633 58.922,24.683 23.606,-0.054 43.711,-9.292 58.953,-24.679 15.153,-15.399 24.953,-37 25.953,-61.352 1.559,-38.176 17.086,-73.14 42.215,-98.683 25.012,-25.52 60.121,-41.637 99.039,-41.637 h 0.192 c 78.242,0.012 141.461,63.414 141.472,141.469 -0.003,38.457 -15.351,73.793 -40.308,99.468 z m -101.633,42.004 -0.223,-0.007 c 0.024,0 0.047,0 0.071,0 l 0.152,0.007" /><path
         id="path56"
         style="fill:#ffffff;fill-opacity:1;fill-rule:nonzero;stroke:none"
         d="M 16.8516,60.8672 V 3.64453 h 20.25 V 60.8672 c 0,22.3242 18.1601,40.4878 40.4922,40.4878 v 20.25 c -33.5508,0 -60.7422,-27.1987 -60.7422,-60.7378" /><path
         id="path58"
         style="fill:#ffffff;fill-opacity:1;fill-rule:nonzero;stroke:none"
         d="m 330.703,60.8672 c -0.066,33.4844 -27.23,60.6058 -60.734,60.6058 -33.496,0 -60.66,-27.1214 -60.731,-60.6058 V 3.64453 H 229.48 V 60.8008 c 0.04,22.293 18.184,40.4262 40.489,40.4262 22.308,0 40.461,-18.1332 40.488,-40.4262 V 3.64063 h 20.25 V 60.8672 h -0.004" /><path
         id="path60"
         style="fill:#ffffff;fill-opacity:1;fill-rule:nonzero;stroke:none"
         d="m 468.176,60.8672 c -0.071,33.4844 -27.231,60.6058 -60.731,60.6058 -33.504,0 -60.66,-27.1214 -60.734,-60.6058 h -0.004 V 3.64063 h 20.25 V 60.8008 c 0.035,22.293 18.184,40.4262 40.488,40.4262 22.305,0 40.457,-18.1332 40.485,-40.4262 V 3.64063 h 20.246 V 60.8672" /><path
         id="path62"
         style="fill:#ffffff;fill-opacity:1;fill-rule:nonzero;stroke:none"
         d="m 135.512,101.355 c 18.824,0 34.687,-12.9136 39.203,-30.355 H 96.3047 c 4.5113,17.4414 20.3793,30.355 39.2073,30.355 z m 60.73,-40.4878 c 0,33.5391 -27.187,60.7378 -60.73,60.7378 -33.547,0 -60.7386,-27.1987 -60.7386,-60.7378 V 60.7383 C 74.7734,27.1953 101.965,0 135.512,0 v 20.2422 c -18.883,0 -34.789,13 -39.2425,30.5156 h 99.9495 l 0.023,10.1094" /><path
         id="path64"
         style="fill:#ffffff;fill-opacity:1;fill-rule:nonzero;stroke:none"
         d="m 541.895,101.355 c 18.828,0 34.699,-12.9136 39.207,-30.355 h -78.407 c 4.508,17.4414 20.375,30.355 39.2,30.355 z m 60.742,-40.4878 c 0,33.5391 -27.192,60.7378 -60.742,60.7378 -33.536,0 -60.731,-27.1987 -60.731,-60.7378 V 60.7383 C 481.164,27.1953 508.359,0 541.895,0 v 20.2422 c -18.879,0 -34.782,13 -39.243,30.5156 h 99.957 l 0.028,10.1094" /><path
         id="path66"
         style="fill:#ffffff;fill-opacity:1;fill-rule:nonzero;stroke:none"
         d="m 615.625,60.8672 h 20.246 c 0,22.3242 18.16,40.4878 40.488,40.4878 9.375,0 18,-3.2066 24.875,-8.5737 l 16.118,12.8987 c -10.801,9.886 -25.188,15.925 -40.993,15.925 -33.543,0 -60.734,-27.1987 -60.734,-60.7378" /><path
         id="path68"
         style="fill:#ffffff;fill-opacity:1;fill-rule:nonzero;stroke:none"
         d="m 686.484,60.7383 c 0,-22.3281 -18.16,-40.4961 -40.488,-40.4961 -9.332,0 -17.937,3.1875 -24.793,8.5156 L 605.074,15.8555 C 615.871,6.00391 630.234,0 645.996,0 679.539,0 706.73,27.1953 706.73,60.7383 h -20.246" /></g></g></svg>