<svg width="683" height="683" viewBox="0 0 683 683" fill="none" xmlns="http://www.w3.org/2000/svg">
<path d="M133.76 108.293C156.147 96.0667 183.253 93 207.853 99.6533C243.413 108.773 272.36 138.933 280.2 174.773C266.933 177.48 253.68 180.307 240.36 182.733C236.44 166.787 225.707 152.76 211.427 144.693C194.427 134.893 172.52 134.307 154.987 143.12C140.453 150.16 129.04 163.347 124.173 178.76C118.24 196.4 121.333 216.707 132.067 231.88C143.08 248.2 162.427 257.693 181.947 258.08C181.627 271.507 181.84 284.947 181.8 298.387C165.267 298.453 148.84 305.413 137.6 317.6C124.093 331.813 118.12 352.92 122.64 372.053C125.747 386.187 134.187 399.04 145.827 407.613C162.013 419.84 184.653 422.813 203.48 415.32C226.213 406.413 241.32 382.827 242.12 358.733C242.96 335.053 251.56 311.573 266.933 293.467C281.64 275.8 302.64 263.427 325.307 259.44C350.827 254.64 378.12 260.44 399.48 275.187C426.28 293.493 442.96 325.013 444.253 357.307C444.707 376.107 453.333 394.787 468.12 406.573C478.827 415.36 492.827 419.92 506.653 419.36C525.893 418.987 544.547 408.547 555.053 392.44C565.093 377.68 567.88 358.333 562.64 341.293C556.76 320.893 539.36 304.067 518.48 299.667C511.52 298.067 504.36 298.587 497.293 298.32C471.48 296.973 446.6 284.587 429.547 265.24C414.827 248.773 405.693 227.413 404 205.387C402.253 184.027 407.52 162.133 418.893 143.96C428.293 128.893 441.693 116.32 457.4 108.013C479.987 95.8533 507.293 92.9733 531.973 99.9333C567.24 109.373 596.32 139.373 603.733 175.24C590.467 177.653 577.32 180.72 564.04 183.04C560 166.373 548.413 151.827 533.24 143.907C519.307 136.36 502.36 134.987 487.227 139.453C470.547 144.52 456.24 157.067 449.387 173.12C443 187.333 442.653 204.053 448.107 218.613C454.733 236.76 470.44 251.68 489.387 256.16C498.467 258.72 507.987 257.16 517.24 258.387C541.493 260.973 564.467 273.16 580.453 291.547C596.08 309.16 605.213 332.413 605.733 355.947C606.387 375.547 601.253 395.36 590.827 412C578.88 431.48 560.16 446.733 538.573 454.267C513.467 463.307 484.747 461.773 460.84 449.88C431.627 435.68 410.84 406.547 405.333 374.707C403.293 364.933 404.293 354.773 401.547 345.133C397.36 328.707 386.52 313.907 371.6 305.693C352.96 295.24 328.493 296.133 310.8 308.173C293.653 319.48 283.267 339.64 282.787 360.04C281.787 381.88 274.293 403.467 260.88 420.8C245.893 440.573 223.293 454.493 198.787 458.613C175.987 462.52 151.867 458.493 131.787 446.92C114.827 437.347 100.84 422.707 91.8933 405.427C80.1467 383.067 77.56 356.227 84.2667 331.933C89.96 310.48 103.4 291.533 120.853 277.973C101.547 263.8 87.8667 242.227 82.92 218.813C77.8133 195.333 81.2933 170.013 92.8933 148.933C102.187 131.8 116.613 117.533 133.76 108.293Z" fill="#F0F0F0"/>
<path d="M111.267 510.013C118.467 504.853 127.307 502.307 136.12 502.173C136.16 507.08 136.267 511.987 135.96 516.88C121.307 516.693 107.867 529.293 107.387 543.987C107.32 558.16 107.253 572.347 107.48 586.533C102.507 586.72 97.52 586.72 92.5467 586.52C92.8533 572.773 92.6 559.013 92.68 545.267C92.6933 531.44 99.8133 517.8 111.267 510.013Z" fill="#F0F0F0"/>
<path fill-rule="evenodd" clip-rule="evenodd" d="M206.587 513.427C194.347 502.227 175.52 499.027 160.307 505.707C142.107 513.16 130.893 533.96 134.6 553.28C137.733 573.587 156.973 589.853 177.573 589.267C177.567 586.875 177.563 584.484 177.56 582.094C177.557 579.701 177.553 577.309 177.547 574.92C165.76 574.52 154.4 567.053 150.453 555.76C150.187 555.107 149.627 553.773 149.347 553.12C149.347 553.12 149.347 553.12 149.347 553.12C150.498 553.128 151.65 553.134 152.801 553.139C160.862 553.175 168.926 553.15 176.991 553.126C178.809 553.12 180.626 553.114 182.444 553.11C195.17 553.075 207.895 553.075 220.613 553.347C222.52 538.787 217.72 523.267 206.587 513.427ZM173.36 517.213C162.027 518.56 152.88 527.453 149.347 538.027C161.06 538.454 172.799 538.392 184.538 538.329H184.538H184.538C191.481 538.292 198.423 538.256 205.36 538.32C201.747 524.707 187.4 514.853 173.36 517.213Z" fill="#F0F0F0"/>
<path d="M244.907 512.973C258.733 500.547 280.773 498.813 296.373 508.92C308.813 516.493 316.813 530.72 316.84 545.28C316.907 559.053 316.76 572.813 316.92 586.587C311.987 586.68 307.067 586.667 302.147 586.667C302.067 572.427 302.253 558.187 302.107 543.96C301.547 528.787 287.16 515.96 272.04 517.067C257.747 517.347 245.2 529.933 244.627 544.147C244.413 558.307 244.627 572.493 244.533 586.667C239.693 586.667 234.853 586.667 230.013 586.667C230.027 572.893 230.053 559.133 230.013 545.36C229.88 533.053 235.627 520.973 244.907 512.973Z" fill="#F0F0F0"/>
<path d="M328.24 542.693C329.093 521.853 347.32 503.64 368.107 502.48C390.827 500.067 413 518.6 414.72 541.373C415.347 556.453 414.773 571.573 415.013 586.667C410.093 586.667 405.187 586.667 400.267 586.6C400.36 572.84 400.373 559.067 400.293 545.307C400.16 536.04 395.293 526.987 387.507 521.947C380.373 517.027 370.933 515.653 362.707 518.4C351.253 521.947 342.693 533.293 342.72 545.32C342.64 559.107 342.68 572.88 342.68 586.653C337.827 586.667 332.973 586.667 328.12 586.627C328.293 571.987 328.04 557.333 328.24 542.693Z" fill="#F0F0F0"/>
<path d="M519.933 545.787C519.52 525.24 535.627 506 555.947 502.867C569.093 500.453 582.8 504.8 592.84 513.453C589.267 516.907 585.147 519.72 581.387 522.933C574.4 518.067 565.587 515.547 557.16 517.627C544.187 520.227 534.533 532.653 534.52 545.8C529.653 545.88 524.8 545.88 519.933 545.787Z" fill="#F0F0F0"/>
<path d="M570.893 545.627C575.653 545.693 580.413 545.707 585.187 545.68C585.387 559.96 577.933 573.987 566.04 581.88C550 593.093 526.48 591.333 512.32 577.813C516.293 574.813 520.08 571.587 524.027 568.56C532 574.627 543.107 576.64 552.413 572.52C563.387 568.387 570.32 557.107 570.893 545.627Z" fill="#F0F0F0"/>
<path fill-rule="evenodd" clip-rule="evenodd" d="M490.867 509.08C474.813 498.427 451.773 500.453 437.893 513.84C422.427 527.653 419.48 552.96 431.333 569.973C439.107 581.96 453.213 589.44 467.507 589.253C467.52 584.48 467.533 579.707 467.56 574.933C455.347 574.52 443.76 566.44 440.013 554.68C440.013 554.68 440.013 554.68 440.013 554.68L439.347 553.16V553.16C446.567 553.164 453.788 553.149 461.009 553.133C470.402 553.113 479.796 553.093 489.189 553.116C496.495 553.134 503.801 553.177 511.107 553.267C511.012 551.581 510.984 549.89 510.955 548.2C510.89 544.396 510.826 540.596 510.013 536.867C507.747 525.493 500.627 515.293 490.867 509.08ZM471.96 517.28C457.88 514.693 442.973 524.48 439.627 538.36C447.439 538.271 455.253 538.296 463.067 538.321H463.068H463.068C473.913 538.356 484.759 538.391 495.6 538.12C492.027 527.68 483.16 518.84 471.96 517.28Z" fill="#F0F0F0"/>
</svg>
